<svg xmlns="http://www.w3.org/2000/svg" viewBox="0 0 1200 800" width="1200" height="800" font-family="Inter, -apple-system, Segoe UI, Helvetica, Arial, sans-serif">
  <defs>
    <filter id="shadow" x="-4%" y="-4%" width="108%" height="112%">
      <feDropShadow dx="0" dy="2" stdDeviation="3" flood-opacity="0.12"/>
    </filter>
    <marker id="arrow" markerWidth="10" markerHeight="7" refX="9" refY="3.5" orient="auto">
      <polygon points="0 0, 10 3.5, 0 7" fill="#666"/>
    </marker>
    <marker id="arrow-bronze" markerWidth="10" markerHeight="7" refX="9" refY="3.5" orient="auto">
      <polygon points="0 0, 10 3.5, 0 7" fill="#CD7F32"/>
    </marker>
    <marker id="arrow-silver" markerWidth="10" markerHeight="7" refX="9" refY="3.5" orient="auto">
      <polygon points="0 0, 10 3.5, 0 7" fill="#C0C0C0"/>
    </marker>
    <marker id="arrow-gold" markerWidth="10" markerHeight="7" refX="9" refY="3.5" orient="auto">
      <polygon points="0 0, 10 3.5, 0 7" fill="#DAA520"/>
    </marker>
    <marker id="arrow-api" markerWidth="10" markerHeight="7" refX="9" refY="3.5" orient="auto">
      <polygon points="0 0, 10 3.5, 0 7" fill="#4A90D9"/>
    </marker>
    <marker id="arrow-green" markerWidth="10" markerHeight="7" refX="9" refY="3.5" orient="auto">
      <polygon points="0 0, 10 3.5, 0 7" fill="#50C878"/>
    </marker>
    <linearGradient id="bg" x1="0" y1="0" x2="0" y2="1">
      <stop offset="0%" stop-color="#fafbfc"/>
      <stop offset="100%" stop-color="#f0f2f5"/>
    </linearGradient>
  </defs>

  <!-- Background -->
  <rect width="1200" height="800" fill="url(#bg)" rx="0"/>

  <!-- Title -->
  <text x="600" y="38" text-anchor="middle" font-size="20" font-weight="700" fill="#1a1a2e">NFL Data Engineering — System Architecture</text>
  <text x="600" y="58" text-anchor="middle" font-size="12" fill="#666">v4.1 Medallion Architecture with AI Advisor</text>

  <!-- DATA SOURCES (left column) -->
  <rect x="20" y="80" width="155" height="420" rx="10" fill="#f8f9fa" stroke="#dee2e6" stroke-width="1"/>
  <text x="97" y="102" text-anchor="middle" font-size="11" font-weight="700" fill="#495057">DATA SOURCES</text>

  <rect x="30" y="112" width="135" height="34" rx="6" fill="#fff" stroke="#dee2e6" stroke-width="1" filter="url(#shadow)"/>
  <text x="97" y="133" text-anchor="middle" font-size="10" font-weight="600" fill="#333">nfl-data-py</text>

  <rect x="30" y="154" width="135" height="34" rx="6" fill="#fff" stroke="#dee2e6" stroke-width="1" filter="url(#shadow)"/>
  <text x="97" y="175" text-anchor="middle" font-size="10" font-weight="600" fill="#333">Sleeper API</text>

  <rect x="30" y="196" width="135" height="34" rx="6" fill="#fff" stroke="#dee2e6" stroke-width="1" filter="url(#shadow)"/>
  <text x="97" y="217" text-anchor="middle" font-size="10" font-weight="600" fill="#333">FinnedAI Odds</text>

  <rect x="30" y="238" width="135" height="34" rx="6" fill="#fff" stroke="#dee2e6" stroke-width="1" filter="url(#shadow)"/>
  <text x="97" y="259" text-anchor="middle" font-size="10" font-weight="600" fill="#333">RSS Feeds (5)</text>

  <rect x="30" y="280" width="135" height="34" rx="6" fill="#fff" stroke="#dee2e6" stroke-width="1" filter="url(#shadow)"/>
  <text x="97" y="301" text-anchor="middle" font-size="10" font-weight="600" fill="#333">Reddit</text>

  <rect x="30" y="322" width="135" height="34" rx="6" fill="#fff" stroke="#dee2e6" stroke-width="1" filter="url(#shadow)"/>
  <text x="97" y="343" text-anchor="middle" font-size="10" font-weight="600" fill="#333">ESPN</text>

  <rect x="30" y="364" width="135" height="34" rx="6" fill="#fff" stroke="#dee2e6" stroke-width="1" filter="url(#shadow)"/>
  <text x="97" y="385" text-anchor="middle" font-size="10" font-weight="600" fill="#333">FantasyPros</text>

  <rect x="30" y="406" width="135" height="34" rx="6" fill="#fff" stroke="#dee2e6" stroke-width="1" filter="url(#shadow)"/>
  <text x="97" y="427" text-anchor="middle" font-size="10" font-weight="600" fill="#333">CFBD (College)</text>

  <rect x="30" y="448" width="135" height="34" rx="6" fill="#fff" stroke="#dee2e6" stroke-width="1" filter="url(#shadow)"/>
  <text x="97" y="469" text-anchor="middle" font-size="10" font-weight="600" fill="#333">Sleeper Trending</text>

  <!-- BRONZE -->
  <rect x="205" y="80" width="165" height="420" rx="10" fill="#CD7F32" fill-opacity="0.07" stroke="#CD7F32" stroke-width="1.5"/>
  <rect x="205" y="80" width="165" height="26" rx="10" fill="#CD7F32"/>
  <rect x="205" y="96" width="165" height="10" fill="#CD7F32"/>
  <text x="287" y="98" text-anchor="middle" font-size="12" font-weight="700" fill="#fff">BRONZE</text>
  <text x="287" y="125" text-anchor="middle" font-size="9" fill="#8B6914">s3://nfl-raw/</text>

  <text x="215" y="148" font-size="9" fill="#555">16 data types:</text>
  <text x="215" y="163" font-size="8.5" fill="#666">PBP (140 cols), schedules,</text>
  <text x="215" y="176" font-size="8.5" fill="#666">player weekly/seasonal,</text>
  <text x="215" y="189" font-size="8.5" fill="#666">snap counts, injuries,</text>
  <text x="215" y="202" font-size="8.5" fill="#666">rosters, NGS, PFR, QBR,</text>
  <text x="215" y="215" font-size="8.5" fill="#666">depth charts, draft picks,</text>
  <text x="215" y="228" font-size="8.5" fill="#666">combine, officials, teams</text>

  <rect x="215" y="240" width="145" height="1" fill="#CD7F32" fill-opacity="0.3"/>
  <text x="215" y="258" font-size="9" fill="#555">Odds (2016-2021)</text>
  <text x="215" y="273" font-size="8.5" fill="#666">FinnedAI JSON to Parquet</text>

  <rect x="215" y="285" width="145" height="1" fill="#CD7F32" fill-opacity="0.3"/>
  <text x="215" y="303" font-size="9" fill="#555">College (CFBD)</text>
  <text x="215" y="318" font-size="8.5" fill="#666">2016-2025 prospect data</text>

  <rect x="215" y="330" width="145" height="1" fill="#CD7F32" fill-opacity="0.3"/>
  <text x="215" y="348" font-size="9" fill="#555">Sentiment articles</text>
  <text x="215" y="363" font-size="8.5" fill="#666">RSS, Reddit, Sleeper</text>

  <text x="287" y="395" text-anchor="middle" font-size="9" font-weight="600" fill="#8B6914">Parquet partitioned</text>
  <text x="287" y="410" text-anchor="middle" font-size="8.5" fill="#8B6914">season=YYYY/week=WW</text>

  <!-- SILVER -->
  <rect x="400" y="80" width="165" height="420" rx="10" fill="#C0C0C0" fill-opacity="0.10" stroke="#A0A0A0" stroke-width="1.5"/>
  <rect x="400" y="80" width="165" height="26" rx="10" fill="#A0A0A0"/>
  <rect x="400" y="96" width="165" height="10" fill="#A0A0A0"/>
  <text x="482" y="98" text-anchor="middle" font-size="12" font-weight="700" fill="#fff">SILVER</text>
  <text x="482" y="125" text-anchor="middle" font-size="9" fill="#666">s3://nfl-refined/</text>

  <text x="410" y="148" font-size="9" fill="#555">14 transformation paths:</text>
  <text x="410" y="163" font-size="8.5" fill="#666">Player usage/advanced</text>
  <text x="410" y="176" font-size="8.5" fill="#666">Player historical/quality</text>
  <text x="410" y="189" font-size="8.5" fill="#666">Team PBP metrics</text>
  <text x="410" y="202" font-size="8.5" fill="#666">Team tendencies/SOS</text>
  <text x="410" y="215" font-size="8.5" fill="#666">Team situational splits</text>
  <text x="410" y="228" font-size="8.5" fill="#666">Game context/referee</text>
  <text x="410" y="241" font-size="8.5" fill="#666">Playoff context</text>
  <text x="410" y="254" font-size="8.5" fill="#666">Market line movement</text>

  <rect x="410" y="266" width="145" height="1" fill="#A0A0A0" fill-opacity="0.3"/>
  <text x="410" y="284" font-size="9" fill="#555">Graph features (66)</text>
  <text x="410" y="299" font-size="8.5" fill="#666">WR-CB, RB-LB, TE-Safety,</text>
  <text x="410" y="312" font-size="8.5" fill="#666">QB-WR chemistry, OL,</text>
  <text x="410" y="325" font-size="8.5" fill="#666">red zone, game script</text>

  <rect x="410" y="337" width="145" height="1" fill="#A0A0A0" fill-opacity="0.3"/>
  <text x="410" y="355" font-size="9" fill="#555">Sentiment signals</text>
  <text x="410" y="370" font-size="8.5" fill="#666">Weekly aggregation</text>

  <text x="482" y="410" text-anchor="middle" font-size="9" font-weight="600" fill="#777">310+ feature vector</text>

  <!-- GOLD -->
  <rect x="595" y="80" width="165" height="420" rx="10" fill="#FFD700" fill-opacity="0.08" stroke="#DAA520" stroke-width="1.5"/>
  <rect x="595" y="80" width="165" height="26" rx="10" fill="#DAA520"/>
  <rect x="595" y="96" width="165" height="10" fill="#DAA520"/>
  <text x="677" y="98" text-anchor="middle" font-size="12" font-weight="700" fill="#fff">GOLD</text>
  <text x="677" y="125" text-anchor="middle" font-size="9" fill="#8B7500">s3://nfl-trusted/</text>

  <text x="605" y="148" font-size="9" fill="#555">Fantasy Projections</text>
  <text x="605" y="163" font-size="8.5" fill="#666">619 players, 3 scoring</text>
  <text x="605" y="176" font-size="8.5" fill="#666">PPR / Half-PPR / Standard</text>
  <text x="605" y="189" font-size="8.5" fill="#666">Floor/ceiling intervals</text>

  <rect x="605" y="201" width="145" height="1" fill="#DAA520" fill-opacity="0.3"/>
  <text x="605" y="219" font-size="9" fill="#555">Game Predictions</text>
  <text x="605" y="234" font-size="8.5" fill="#666">XGB+LGB+CB+Ridge</text>
  <text x="605" y="247" font-size="8.5" fill="#666">ATS edges, O/U, CLV</text>

  <rect x="605" y="259" width="145" height="1" fill="#DAA520" fill-opacity="0.3"/>
  <text x="605" y="277" font-size="9" fill="#555">ML Models</text>
  <text x="605" y="292" font-size="8.5" fill="#666">QB/RB: XGBoost SHIP</text>
  <text x="605" y="305" font-size="8.5" fill="#666">WR/TE: Ridge 60f hybrid</text>

  <rect x="605" y="317" width="145" height="1" fill="#DAA520" fill-opacity="0.3"/>
  <text x="605" y="335" font-size="9" fill="#555">Sentiment Gold</text>
  <text x="605" y="350" font-size="8.5" fill="#666">Player alerts, signals</text>

  <text x="677" y="410" text-anchor="middle" font-size="9" font-weight="600" fill="#8B7500">Parquet output</text>

  <!-- API (Railway) -->
  <rect x="790" y="80" width="165" height="250" rx="10" fill="#4A90D9" fill-opacity="0.07" stroke="#4A90D9" stroke-width="1.5"/>
  <rect x="790" y="80" width="165" height="26" rx="10" fill="#4A90D9"/>
  <rect x="790" y="96" width="165" height="10" fill="#4A90D9"/>
  <text x="872" y="98" text-anchor="middle" font-size="12" font-weight="700" fill="#fff">FastAPI</text>
  <text x="872" y="125" text-anchor="middle" font-size="9" fill="#2C5F8A">Railway deployment</text>

  <text x="800" y="148" font-size="9" fill="#555">23 endpoints:</text>
  <text x="800" y="163" font-size="8.5" fill="#666">Projections (weekly/pre)</text>
  <text x="800" y="176" font-size="8.5" fill="#666">Predictions (edges/CLV)</text>
  <text x="800" y="189" font-size="8.5" fill="#666">Players (history/matchup)</text>
  <text x="800" y="202" font-size="8.5" fill="#666">Lineups (optimal builder)</text>
  <text x="800" y="215" font-size="8.5" fill="#666">Games (archive/results)</text>
  <text x="800" y="228" font-size="8.5" fill="#666">College (prospects)</text>
  <text x="800" y="241" font-size="8.5" fill="#666">News (sentiment/alerts)</text>

  <text x="872" y="275" text-anchor="middle" font-size="8" fill="#4A90D9">CORS + exception handlers</text>

  <!-- FRONTEND (Vercel) -->
  <rect x="790" y="345" width="165" height="155" rx="10" fill="#50C878" fill-opacity="0.07" stroke="#50C878" stroke-width="1.5"/>
  <rect x="790" y="345" width="165" height="26" rx="10" fill="#50C878"/>
  <rect x="790" y="361" width="165" height="10" fill="#50C878"/>
  <text x="872" y="363" text-anchor="middle" font-size="12" font-weight="700" fill="#fff">Next.js</text>
  <text x="872" y="388" text-anchor="middle" font-size="9" fill="#2E7D4E">Vercel deployment</text>

  <text x="800" y="408" font-size="9" fill="#555">11 pages:</text>
  <text x="800" y="423" font-size="8.5" fill="#666">Projections, Predictions</text>
  <text x="800" y="436" font-size="8.5" fill="#666">Player detail, Lineups</text>
  <text x="800" y="449" font-size="8.5" fill="#666">Draft, Accuracy, News</text>
  <text x="800" y="462" font-size="8.5" fill="#666">Games, College, Advisor</text>

  <!-- AI ADVISOR -->
  <rect x="985" y="80" width="195" height="175" rx="10" fill="#9B59B6" fill-opacity="0.07" stroke="#9B59B6" stroke-width="1.5"/>
  <rect x="985" y="80" width="195" height="26" rx="10" fill="#9B59B6"/>
  <rect x="985" y="96" width="195" height="10" fill="#9B59B6"/>
  <text x="1082" y="98" text-anchor="middle" font-size="12" font-weight="700" fill="#fff">AI Advisor</text>
  <text x="1082" y="125" text-anchor="middle" font-size="9" fill="#6C3483">Gemini 2.5 Flash</text>

  <text x="995" y="148" font-size="9" fill="#555">12 tools:</text>
  <text x="995" y="163" font-size="8.5" fill="#666">getProjections, getPlayers</text>
  <text x="995" y="176" font-size="8.5" fill="#666">comparePlayers, getLineup</text>
  <text x="995" y="189" font-size="8.5" fill="#666">getGamePredictions</text>
  <text x="995" y="202" font-size="8.5" fill="#666">getPlayerHistory, getNews</text>
  <text x="995" y="215" font-size="8.5" fill="#666">getCollegeProspects ...</text>

  <!-- GH ACTIONS -->
  <rect x="985" y="275" width="195" height="120" rx="10" fill="#333" fill-opacity="0.05" stroke="#555" stroke-width="1.5"/>
  <rect x="985" y="275" width="195" height="26" rx="10" fill="#24292e"/>
  <rect x="985" y="291" width="195" height="10" fill="#24292e"/>
  <text x="1082" y="293" text-anchor="middle" font-size="12" font-weight="700" fill="#fff">GitHub Actions</text>

  <text x="995" y="318" font-size="9" fill="#555">Automation:</text>
  <text x="995" y="333" font-size="8.5" fill="#666">Weekly pipeline (Tue 9am)</text>
  <text x="995" y="346" font-size="8.5" fill="#666">Daily sentiment cron</text>
  <text x="995" y="359" font-size="8.5" fill="#666">Auto-issue on failure</text>
  <text x="995" y="372" font-size="8.5" fill="#666">ADP refresh</text>

  <!-- FLOW ARROWS -->
  <!-- Sources to Bronze -->
  <line x1="165" y1="260" x2="200" y2="260" stroke="#CD7F32" stroke-width="2" marker-end="url(#arrow-bronze)"/>

  <!-- Bronze to Silver -->
  <line x1="370" y1="260" x2="395" y2="260" stroke="#A0A0A0" stroke-width="2" marker-end="url(#arrow-silver)"/>

  <!-- Silver to Gold -->
  <line x1="565" y1="260" x2="590" y2="260" stroke="#DAA520" stroke-width="2" marker-end="url(#arrow-gold)"/>

  <!-- Gold to API -->
  <line x1="760" y1="200" x2="785" y2="200" stroke="#4A90D9" stroke-width="2" marker-end="url(#arrow-api)"/>

  <!-- API to Frontend -->
  <line x1="872" y1="335" x2="872" y2="340" stroke="#50C878" stroke-width="2" marker-end="url(#arrow-green)"/>

  <!-- API to AI Advisor -->
  <line x1="955" y1="170" x2="980" y2="170" stroke="#9B59B6" stroke-width="1.5" marker-end="url(#arrow)" stroke-dasharray="5,3"/>

  <!-- Frontend to AI Advisor (bidirectional) -->
  <path d="M 955 400 Q 975 400 975 280 L 975 200 L 980 200" stroke="#9B59B6" stroke-width="1.5" fill="none" marker-end="url(#arrow)" stroke-dasharray="5,3"/>

  <!-- GH Actions to Bronze (automation arrow) -->
  <path d="M 985 340 Q 310 590 287 505" stroke="#24292e" stroke-width="1.5" fill="none" marker-end="url(#arrow)" stroke-dasharray="5,3"/>

  <!-- LEGEND -->
  <rect x="20" y="530" width="1160" height="250" rx="10" fill="#fff" stroke="#dee2e6" stroke-width="1" filter="url(#shadow)"/>
  <text x="40" y="556" font-size="12" font-weight="700" fill="#333">Key Technologies and Stats</text>

  <!-- Col 1 -->
  <rect x="40" y="572" width="12" height="12" rx="2" fill="#CD7F32"/>
  <text x="58" y="583" font-size="10" fill="#555">Bronze: 16 data types, 517+ Parquet files, 93 MB</text>
  <rect x="40" y="596" width="12" height="12" rx="2" fill="#A0A0A0"/>
  <text x="58" y="607" font-size="10" fill="#555">Silver: 14 paths, 310+ features, 66 graph features</text>
  <rect x="40" y="620" width="12" height="12" rx="2" fill="#DAA520"/>
  <text x="58" y="631" font-size="10" fill="#555">Gold: 619 players, 3 scoring, XGB+LGB+CB+Ridge ensemble</text>
  <rect x="40" y="644" width="12" height="12" rx="2" fill="#4A90D9"/>
  <text x="58" y="655" font-size="10" fill="#555">API: FastAPI on Railway, 23 endpoints, CORS</text>
  <rect x="40" y="668" width="12" height="12" rx="2" fill="#50C878"/>
  <text x="58" y="679" font-size="10" fill="#555">Frontend: Next.js on Vercel, 11 pages, responsive</text>
  <rect x="40" y="692" width="12" height="12" rx="2" fill="#9B59B6"/>
  <text x="58" y="703" font-size="10" fill="#555">AI: Gemini 2.5 Flash, 12 tools, response cards</text>

  <!-- Col 2 -->
  <text x="520" y="583" font-size="10" font-weight="600" fill="#333">ML Models</text>
  <text x="520" y="600" font-size="9" fill="#666">QB/RB: XGBoost SHIP (position-specific)</text>
  <text x="520" y="615" font-size="9" fill="#666">WR/TE: Ridge 60f + graph hybrid residuals</text>
  <text x="520" y="630" font-size="9" fill="#666">Game: 4-model stacking ensemble (53% ATS)</text>
  <text x="520" y="645" font-size="9" fill="#666">Backtest: 5.05 MAE (2022-2024, half-PPR)</text>

  <text x="520" y="672" font-size="10" font-weight="600" fill="#333">Infrastructure</text>
  <text x="520" y="689" font-size="9" fill="#666">AWS S3 (us-east-2) | Railway | Vercel</text>
  <text x="520" y="704" font-size="9" fill="#666">GHA weekly + daily cron | 1379 tests</text>

  <!-- Col 3 -->
  <text x="820" y="583" font-size="10" font-weight="600" fill="#333">Data Coverage</text>
  <text x="820" y="600" font-size="9" fill="#666">Seasons: 2016-2026</text>
  <text x="820" y="615" font-size="9" fill="#666">PBP: 140 columns per play</text>
  <text x="820" y="630" font-size="9" fill="#666">Odds: 2016-2021 (FinnedAI)</text>
  <text x="820" y="645" font-size="9" fill="#666">College: CFBD API (2016-2025)</text>

  <text x="820" y="672" font-size="10" font-weight="600" fill="#333">Upcoming</text>
  <text x="820" y="689" font-size="9" fill="#666">v5.0 Sentiment multiplier wiring</text>
  <text x="820" y="704" font-size="9" fill="#666">v5.1 Neo4j Aura + PFF subscription</text>

  <!-- Version stamp -->
  <text x="1160" y="768" text-anchor="end" font-size="9" fill="#aaa">v4.1 | April 2026</text>
</svg>